<svg width="24" height="22" viewBox="0 0 24 22" fill="none" xmlns="http://www.w3.org/2000/svg">
<path d="M3.5 1C0.43883 2.80636 -0.688903 6.56776 1.00002 10.4993C2.37227 13.8995 9.08352 21.6741 12 20.9999C14.5835 21.6741 21.2384 14.6098 23 10.4993C26 3.49926 19.5 -2.50075 14 1.49925C9.5 5.5 14.5 5.5 10 1.5C7.2555 -0.412618 5.19466 0 3.5 1ZM11 4.99925C12.5114 7.99925 11.4475 8.25248 13 4.99925C15.5 0.73862 19.5 0.499252 22 4.99925C23.5 10.4993 16.5 16.9993 13.5 18.9993C11.9165 19.4996 12 19.4996 10.5 18.9996C7.5 16.5 0.5 11 2 4.99925C5 -0.5 9.48866 1.99925 11 4.99925Z" fill="#292D32"/>
<path d="M12.5 7.5C12 8 11.5 7.5 11.5 7.5C11 6.5 11.5 5.5 9.5 3C12 5.5 13.9477 3 14.5 3C12 6 13.2818 6.71818 12.5 7.5Z" fill="#292D32"/>
<path d="M12.5 7.5C12 8 11.5 7.5 11.5 7.5C11 6.5 11.5 5.5 9.5 3C12 5.5 13.9477 3 14.5 3C12 6 13.2818 6.71818 12.5 7.5Z" fill="#292D32"/>
</svg>
